<?xml version="1.0" encoding="UTF-8"?>
<svg version="1.1" xmlns="http://www.w3.org/2000/svg" width="1000" height="1000">
<path d="M0 0 C1.222565 -0.00140488 2.44513 -0.00280975 3.70474243 -0.0042572 C7.01894298 -0.00312155 10.33238299 0.0123132 13.64645004 0.03666687 C15.72585818 0.05085641 17.80523241 0.06005356 19.88467407 0.06774902 C44.51318308 0.16358332 69.06718646 0.86960011 93.65234375 2.36328125 C95.25064026 2.45802734 95.25064026 2.45802734 96.88122559 2.5546875 C174.77076541 7.17287929 252.55266696 15.59800264 329.43579102 29.03100586 C337.23367348 30.19995817 346.69981024 29.36625509 353.65234375 25.36328125 C355.42693418 21.76321608 355.98958336 18.53146668 356.27734375 14.55078125 C356.35210938 13.57496094 356.426875 12.59914062 356.50390625 11.59375 C356.55289063 10.85769531 356.601875 10.12164062 356.65234375 9.36328125 C361.84487342 11.98475254 365.46706623 15.99139587 369.46484375 20.11328125 C374.15285752 24.92242073 378.88882838 29.55943563 383.99487305 33.92675781 C385.25903272 35.0224001 386.46943807 36.18037557 387.65234375 37.36328125 C387.99555851 44.15893353 386.76076435 50.8462593 382.65234375 56.36328125 C376.58364337 61.37655548 370.25590445 62.57670601 362.65234375 63.36328125 C361.41854078 80.11558384 367.49307614 89.70327366 377.4765625 102.26953125 C385.80995814 112.83416596 389.99767316 122.68815157 390.08984375 136.17578125 C390.12271484 136.98208984 390.15558594 137.78839844 390.18945312 138.61914062 C390.31576405 153.76496911 383.96492225 169.16643192 379.10546875 183.31787109 C378.27179859 185.75448842 377.45788286 188.1971609 376.64453125 190.640625 C371.1870561 206.78258463 364.77071434 222.79900615 349.02734375 231.30078125 C336.5970844 236.95574902 324.1125738 238.00462794 310.65234375 237.36328125 C309.74097656 237.32605957 308.82960938 237.28883789 307.890625 237.25048828 C267.77472409 235.46100447 229.34048041 225.65459663 191.08984375 214.05078125 C190.07295471 213.74237305 189.05606567 213.43396484 188.00836182 213.11621094 C185.09488833 212.22914992 182.18369816 211.33503983 179.2734375 210.4375 C177.9707769 210.03944405 177.9707769 210.03944405 176.64179993 209.63334656 C160.1062367 204.49061089 151.77024519 194.43859415 143.64306641 179.50927734 C137.00235851 166.83884674 132.68078545 153.85569258 133.65234375 139.36328125 C137.78917038 139.90630145 140.36360721 142.36134262 143.46484375 144.92578125 C158.8538494 157.1225384 178.61360552 166.06299565 198.65234375 164.36328125 C205.97136255 163.15730656 212.99383797 161.69253414 219.65234375 158.36328125 C219.24132189 153.44850925 217.25025161 151.64015927 213.58984375 148.48828125 C212.60113281 147.62203125 211.61242187 146.75578125 210.59375 145.86328125 C208.795477 144.33486861 206.99202308 142.81249245 205.1796875 141.30078125 C204.46941406 140.70265625 203.75914062 140.10453125 203.02734375 139.48828125 C202.39570312 138.97523438 201.7640625 138.4621875 201.11328125 137.93359375 C199.42137516 136.1150209 199.04072612 134.78804685 198.65234375 132.36328125 C205.82772922 131.91481966 211.81309464 133.53949903 218.65234375 135.61328125 C219.69390625 135.91363281 220.73546875 136.21398437 221.80859375 136.5234375 C230.71417412 139.16587612 237.9292135 142.69793631 245.46484375 148.05078125 C251.26553256 152.03898837 257.23157375 155.34557576 263.58984375 158.36328125 C264.37012939 158.73670654 265.15041504 159.11013184 265.9543457 159.49487305 C273.36197696 162.91371897 280.43217237 165.03706579 288.65234375 164.36328125 C292.04698627 163.00542424 293.35678645 161.78113812 295.46484375 158.80078125 C298.28728252 150.63056376 296.73635955 143.97754751 293.19140625 136.25390625 C286.04848704 122.83827119 273.67557122 115.23471801 259.44140625 110.65136719 C170.86805366 84.20442345 58.14116549 119.49783066 -53.34765625 152.36328125 C-52.41832275 152.3475708 -51.48898926 152.33186035 -50.53149414 152.31567383 C-13.10346256 151.76895928 21.79167967 156.36188737 57.46777344 168.33642578 C60.68847784 169.37493258 63.92786782 170.27822906 67.19140625 171.171875 C78.25849294 174.4250657 85.65234916 177.48691039 91.40234375 187.86328125 C92.75901498 190.48752598 94.0631688 193.12964557 95.34130859 195.79296875 C97.43872604 199.90500058 100.02612823 203.61991632 102.71484375 207.36328125 C103.21121338 208.0586499 103.70758301 208.75401855 104.21899414 209.47045898 C108.89950004 215.90337087 114.02636398 221.73730148 119.65234375 227.36328125 C120.38839844 228.09933594 121.12445312 228.83539063 121.8828125 229.59375 C130.24089026 237.46465383 139.66231477 242.88166907 150.38671875 246.765625 C151.2120108 247.06645996 152.03730286 247.36729492 152.88760376 247.67724609 C161.80917251 250.86751014 170.87956163 253.41464093 180.02734375 255.86328125 C181.79601816 256.34222497 183.56465357 256.82131272 185.33325195 257.30053711 C206.58694718 263.03325732 227.98241758 268.01326446 249.47387695 272.76419067 C257.06414986 274.44313042 264.65253405 276.13053384 272.23937988 277.82489014 C273.75277361 278.1625652 275.2663383 278.49947596 276.78015137 278.83526611 C290.85605078 281.95886794 303.80191183 285.74145525 316.65234375 292.36328125 C317.61454834 292.85465576 317.61454834 292.85465576 318.59619141 293.35595703 C327.0717617 297.75483719 334.53005451 302.9974443 341.65234375 309.36328125 C342.61914062 310.18892578 342.61914062 310.18892578 343.60546875 311.03125 C357.68334682 323.8725577 363.31495939 343.31508947 364.4921875 361.72265625 C367.32925765 426.21410459 347.66419935 488.75585988 320.54614258 546.46105957 C319.70124245 548.25921291 318.8593184 550.05876376 318.01757812 551.85839844 C294.72962037 601.52655231 268.98269381 645.53197544 229.82617188 684.09350586 C211.68716894 699.95214884 211.68716894 699.95214884 201.33984375 720.36328125 C201.44296875 721.02328125 201.54609375 721.68328125 201.65234375 722.36328125 C207.69153641 725.38287758 215.3159973 722.65996003 221.40234375 720.92578125 C222.65724609 720.58063477 222.65724609 720.58063477 223.9375 720.22851562 C225.48665386 719.80231301 227.03467092 719.3719373 228.58105469 718.93579102 C230.59757028 718.37842078 232.62062557 717.86205375 234.65234375 717.36328125 C233.30717116 720.43796145 231.92327921 722.23900027 229.33984375 724.36328125 C225.60440076 727.52456031 221.98796135 730.78483971 218.40234375 734.11328125 C217.27610526 735.15631867 216.14980263 736.19928684 215.0234375 737.2421875 C214.46253418 737.76184082 213.90163086 738.28149414 213.32373047 738.81689453 C206.33532332 745.2826513 199.3017419 751.69742051 192.2109375 758.05078125 C189.87083207 760.16580784 187.55396068 762.30399516 185.24291992 764.45068359 C183.21681886 766.32366981 181.1724807 768.17593465 179.12402344 770.02441406 C177.72594751 771.2963199 176.3486511 772.59095683 174.97265625 773.88671875 C161.39162177 786.01696023 141.53131308 788.3206995 123.98754883 790.02587891 C123.34148481 790.08876579 122.69542079 790.15165267 122.02977908 790.21644521 C103.48696075 791.96710776 84.88699655 791.80347796 66.27963614 791.76625776 C61.18087061 791.75851899 56.08211905 791.76574304 50.98335266 791.77041626 C42.45395938 791.77582294 33.92464491 791.76880695 25.39526367 791.75439453 C15.56032389 791.7379672 5.72556979 791.74344955 -4.10936576 791.75987375 C-12.61540061 791.77350368 -21.12137979 791.7754042 -29.62742203 791.76755774 C-34.68212478 791.76290362 -39.73674016 791.76219594 -44.79143715 791.77216721 C-49.52538197 791.78086064 -54.25908674 791.77477185 -58.99300575 791.75748444 C-60.72232668 791.75353702 -62.45166803 791.75462353 -64.18098068 791.76127243 C-72.9379666 791.79182909 -81.10106343 791.7502321 -89.34765625 788.36328125 C-89.78515625 785.80078125 -89.78515625 785.80078125 -89.34765625 782.36328125 C-84.8242253 776.32473382 -78.17876126 772.27205947 -71.97265625 768.17578125 C-70.0097375 766.85778176 -68.04750538 765.53875914 -66.0859375 764.21875 C-65.11736816 763.5695459 -64.14879883 762.9203418 -63.15087891 762.25146484 C-52.5187666 755.08992882 -42.03532268 747.77853776 -32.34765625 739.36328125 C-31.85426758 738.93692383 -31.36087891 738.51056641 -30.85253906 738.07128906 C-17.80098264 726.71962227 -3.99648988 712.1335771 -2.10546875 694.046875 C-2.06661998 691.9740064 -2.06661998 691.9740064 -2.34765625 689.36328125 C-10.473929 685.09033729 -18.64308097 681.57215534 -27.28515625 678.48828125 C-28.55587412 678.02792316 -29.82637396 677.5669629 -31.09667969 677.10546875 C-39.17896742 674.17852257 -47.28744555 671.32669254 -55.3984375 668.48046875 C-90.6189243 656.10684671 -90.6189243 656.10684671 -104.78515625 650.11328125 C-105.80125977 649.68402344 -106.81736328 649.25476563 -107.86425781 648.8125 C-112.68310698 646.71573597 -117.19365491 644.60881151 -121.34765625 641.36328125 C-121.34765625 640.70328125 -121.34765625 640.04328125 -121.34765625 639.36328125 C-116.4160096 640.3297097 -111.49390108 641.31725977 -106.59375 642.43359375 C-98.31012881 644.2778042 -90.29580385 645.7364297 -81.78515625 645.73828125 C-80.72349243 645.74045654 -80.72349243 645.74045654 -79.64038086 645.74267578 C-76.01598336 645.66329314 -74.4408566 645.42541482 -71.34765625 643.36328125 C-72.04744695 629.71736265 -88.22618883 617.03574276 -97.7121582 608.453125 C-102.64275425 604.05270912 -107.66504299 599.75764821 -112.69921875 595.4765625 C-115.85626008 592.78991862 -118.98676443 590.07400648 -122.11230469 587.35083008 C-127.84453296 582.35732853 -133.63038876 577.45675938 -139.5390625 572.671875 C-143.46605227 569.44398772 -147.30847684 566.12096703 -151.15869141 562.80224609 C-154.66019878 559.79070095 -158.19561146 556.83261916 -161.78515625 553.92578125 C-167.47673516 549.30241657 -173.00066517 544.49740643 -178.52734375 539.6796875 C-180.95524316 537.56524352 -183.39562521 535.46781078 -185.85546875 533.390625 C-194.28649096 526.26470346 -202.35772329 518.81401416 -210.37060547 511.22265625 C-212.30883742 509.39978955 -214.26343486 507.59678113 -216.2265625 505.80078125 C-221.77713754 500.71921784 -227.15925268 495.71645812 -231.9765625 489.9140625 C-233.41664332 488.18008317 -233.41664332 488.18008317 -235.84765625 486.48828125 C-266.85441515 460.13253619 -269.30063541 397.49221364 -272.52490234 359.64282227 C-273.44206405 348.03905742 -273.63607425 336.43691275 -273.66015625 324.80078125 C-273.66567001 323.50924637 -273.66567001 323.50924637 -273.67129517 322.19161987 C-273.67682636 319.72645134 -273.666078 317.26197673 -273.6484375 314.796875 C-273.64920288 314.07636963 -273.64996826 313.35586426 -273.65075684 312.61352539 C-273.57179578 306.79412977 -272.98094949 300.62986772 -270.34765625 295.36328125 C-267.77210951 296.35227237 -266.57184657 296.97317981 -265.17651367 299.40112305 C-263.01731027 305.26529032 -261.23685183 311.13158745 -259.66015625 317.17578125 C-251.37339216 347.27591621 -234.9553517 373.39371902 -215.34765625 397.36328125 C-214.90405762 397.91129395 -214.46045898 398.45930664 -214.00341797 399.02392578 C-189.10371018 430.37731726 -189.10371018 430.37731726 -155.34765625 449.36328125 C-158.37041329 444.08490628 -161.51586024 439.06590689 -165.22265625 434.23828125 C-189.04873773 401.84756627 -189.40977412 358.21060582 -183.62304688 320.12207031 C-183.53216797 319.54166992 -183.44128906 318.96126953 -183.34765625 318.36328125 C-179.34765625 318.36328125 -179.34765625 318.36328125 -177.73071289 319.60888672 C-176.25270451 321.48372665 -175.24399998 323.27801479 -174.21875 325.43359375 C-173.82888916 326.23893555 -173.43902832 327.04427734 -173.03735352 327.87402344 C-172.62412842 328.73672852 -172.21090332 329.59943359 -171.78515625 330.48828125 C-158.78785965 356.98451612 -142.60031161 387.74895413 -113.390625 398.453125 C-108.23387062 399.99551752 -103.39108846 400.48520011 -98.02050781 400.42919922 C-96.78351135 400.41944061 -95.54651489 400.40968201 -94.27203369 400.39962769 C-93.61632637 400.39226467 -92.96061905 400.38490166 -92.28504181 400.37731552 C-90.19391084 400.35499515 -88.10287492 400.34110186 -86.01165771 400.32962036 C-80.06688587 400.2963715 -74.12226196 400.25586737 -68.17773438 400.19189453 C-49.34571932 399.99610231 -31.0182381 400.48888837 -12.34765625 403.36328125 C-11.29976929 403.52334656 -11.29976929 403.52334656 -10.23071289 403.68664551 C-6.61084117 404.26091295 -3.04305678 404.97546409 0.52734375 405.80078125 C2.14709106 406.1709436 2.14709106 406.1709436 3.79956055 406.54858398 C49.0810175 417.44902867 91.6341103 437.94852173 131.65234375 461.36328125 C132.59819336 461.90339844 133.54404297 462.44351562 134.51855469 463 C135.43668945 463.53238281 136.35482422 464.06476563 137.30078125 464.61328125 C138.13528809 465.0928125 138.96979492 465.57234375 139.82958984 466.06640625 C140.43109863 466.494375 141.03260742 466.92234375 141.65234375 467.36328125 C141.65234375 468.02328125 141.65234375 468.68328125 141.65234375 469.36328125 C140.61594505 469.37208061 140.61594505 469.37208061 139.55860901 469.38105774 C60.25856829 465.33038733 60.25856829 465.33038733 -9.34765625 493.36328125 C-14.38894536 500.22503587 -15.48658807 505.9636591 -14.34765625 514.36328125 C-6.87512593 535.07221437 11.39198078 550.62692723 28.65234375 563.36328125 C29.6889917 564.13454346 29.6889917 564.13454346 30.74658203 564.92138672 C60.03221115 586.64901305 91.77701123 604.68440617 124.08984375 621.48828125 C124.69827118 621.80624664 125.30669861 622.12421204 125.93356323 622.45181274 C133.03880208 626.15759921 140.13315744 629.57966925 147.65234375 632.36328125 C147.59006592 631.58243164 147.52778809 630.80158203 147.46362305 629.99707031 C145.89228113 606.19834524 159.84502525 580.6566401 168.34765625 558.859375 C178.74679908 532.18301799 188.90185892 505.50029103 194.65234375 477.36328125 C194.89597656 476.2546875 195.13960937 475.14609375 195.390625 474.00390625 C198.72395359 456.49826223 198.09770978 437.95094333 190.32421875 421.8125 C185.49394606 414.73637623 179.20854422 410.56142606 171.83984375 406.42578125 C169.86586401 405.28875294 167.89326378 404.14932714 165.921875 403.0078125 C164.89400879 402.41436035 163.86614258 401.8209082 162.80712891 401.20947266 C157.49260085 398.09939208 152.26209064 394.85525743 147.02734375 391.61328125 C126.58901153 378.99080995 106.04905333 366.55152837 85.37573242 354.31811523 C78.19369993 350.06715317 71.03164423 345.78680546 63.89404297 341.46142578 C51.13144484 333.73857464 38.1866281 326.39050841 25.09375 319.24267578 C22.79983823 317.98994218 20.50816353 316.73310349 18.21875 315.47216797 C-33.15715333 287.19646862 -85.15100583 268.33366978 -143.34765625 260.36328125 C-142.3591061 257.85228045 -141.36758823 255.40314522 -140.16015625 252.98828125 C-139.0885058 249.52602594 -139.65850521 246.87795153 -140.34765625 243.36328125 C-150.95800067 238.5139465 -163.75507426 241.57176453 -174.34765625 245.36328125 C-178.19712403 246.99768179 -181.87189117 248.8958678 -185.5546875 250.875 C-188.34765625 252.36328125 -188.34765625 252.36328125 -191.34765625 253.36328125 C-192.12185216 238.63742996 -181.21616272 225.91072212 -173.50073242 214.08740234 C-161.94605989 196.21463109 -149.67602442 176.19973164 -147.80078125 154.5859375 C-147.71473633 153.6050415 -147.62869141 152.62414551 -147.54003906 151.61352539 C-147.47655273 150.87094482 -147.41306641 150.12836426 -147.34765625 149.36328125 C-148.08522156 149.38104614 -148.82278687 149.39881104 -149.58270264 149.41711426 C-156.5836226 149.57838918 -163.58388382 149.69969663 -170.58614731 149.77777863 C-174.18503743 149.81927532 -177.78237462 149.87541396 -181.38037109 149.96679688 C-184.8624079 150.05466629 -188.34296582 150.10174648 -191.82602692 150.12229919 C-193.78040957 150.14395914 -195.73420876 150.20625995 -197.68768311 150.26965332 C-207.34357412 150.27443433 -212.90935224 147.37024945 -220.34765625 141.36328125 C-221.06450592 140.81385864 -221.78135559 140.26443604 -222.51992798 139.69836426 C-224.22080985 138.38635682 -225.85172601 137.02257081 -227.47265625 135.61328125 C-228.05756836 135.10506836 -228.64248047 134.59685547 -229.24511719 134.07324219 C-252.74158885 113.17747588 -266.92787512 81.14666909 -271.34765625 50.36328125 C-271.38785903 48.69709953 -271.40380414 47.02900187 -271.34765625 45.36328125 C-270.37828125 46.20890625 -269.40890625 47.05453125 -268.41015625 47.92578125 C-264.17613377 51.56114071 -259.77596403 54.96924944 -255.34765625 58.36328125 C-254.35765625 57.86828125 -254.35765625 57.86828125 -253.34765625 57.36328125 C-256.10736996 47.89898698 -260.2298444 39.33866821 -264.78515625 30.61328125 C-265.33453857 29.56084229 -265.8839209 28.50840332 -266.44995117 27.42407227 C-269.52252891 21.61524381 -272.7397075 15.95949788 -276.26586914 10.41308594 C-277.34765625 8.36328125 -277.34765625 8.36328125 -277.34765625 5.36328125 C-276.3249614 5.47381332 -275.30226654 5.5843454 -274.24858093 5.69822693 C-264.52770204 6.74816327 -254.80624312 7.79257893 -245.08421612 8.83183193 C-240.08815719 9.36606721 -235.09230937 9.90212842 -230.09692383 10.44262695 C-225.2603585 10.96586881 -220.42326568 11.48396922 -215.58579445 11.99876595 C-213.75639709 12.19431118 -211.92718427 12.3915924 -210.09818077 12.59078789 C-197.85576206 13.92256747 -185.65168869 14.84030157 -173.34765625 15.36328125 C-174.19622192 15.14140137 -175.0447876 14.91952148 -175.91906738 14.69091797 C-179.33444165 13.79632616 -182.74723295 12.89217686 -186.16015625 11.98828125 C-187.37509766 11.67117187 -188.59003906 11.3540625 -189.84179688 11.02734375 C-191.00517578 10.71796875 -192.16855469 10.40859375 -193.3671875 10.08984375 C-194.44073486 9.80705566 -195.51428223 9.52426758 -196.62036133 9.23291016 C-199.34765625 8.36328125 -199.34765625 8.36328125 -202.34765625 6.36328125 C-202.34765625 5.70328125 -202.34765625 5.04328125 -202.34765625 4.36328125 C-196.68300056 2.47506269 -190.35227881 3.1684911 -184.41015625 3.17578125 C-183.28894379 3.17569061 -183.28894379 3.17569061 -182.14508057 3.17559814 C-158.2163908 3.20284673 -134.38040742 4.85927765 -110.55078125 6.921875 C-61.83232625 12.67770335 -61.83232625 12.67770335 -15.94897461 1.83105469 C-10.65084118 -0.32828218 -5.66811965 -0.04449548 0 0 Z " fill="#FFFFFF" transform="translate(444.34765625,118.63671875)"/>
</svg>
